<svg id="visual" viewBox="0 0 900 600" width="900" height="300" xmlns="http://www.w3.org/2000/svg" xmlns:xlink="http://www.w3.org/1999/xlink" version="1.1"><g stroke-width="1" stroke-linejoin="bevel"><path d="M505 300L505 361L563 311Z" fill="#1d4e6b" stroke="#1d4e6b"></path><path d="M505 361L631 376L563 311Z" fill="#081a28" stroke="#081a28"></path><path d="M505 300L418 364L505 361Z" fill="#112e42" stroke="#112e42"></path><path d="M505 361L526 507L631 376Z" fill="#205a7a" stroke="#205a7a"></path><path d="M590 208L475 226L505 300Z" fill="#205a7a" stroke="#205a7a"></path><path d="M505 300L372 331L418 364Z" fill="#112e42" stroke="#112e42"></path><path d="M590 208L505 300L563 311Z" fill="#15384f" stroke="#15384f"></path><path d="M663 209L590 208L563 311Z" fill="#1d4e6b" stroke="#1d4e6b"></path><path d="M475 226L372 331L505 300Z" fill="#00101c" stroke="#00101c"></path><path d="M403 485L505 361L418 364Z" fill="#246688" stroke="#246688"></path><path d="M403 485L526 507L505 361Z" fill="#00101c" stroke="#00101c"></path><path d="M724 277L663 209L563 311Z" fill="#081a28" stroke="#081a28"></path><path d="M483 117L371 211L475 226Z" fill="#246688" stroke="#246688"></path><path d="M475 226L371 211L372 331Z" fill="#19435d" stroke="#19435d"></path><path d="M329 467L403 485L418 364Z" fill="#1d4e6b" stroke="#1d4e6b"></path><path d="M660 489L703 431L631 376Z" fill="#00101c" stroke="#00101c"></path><path d="M631 376L724 277L563 311Z" fill="#19435d" stroke="#19435d"></path><path d="M703 431L724 277L631 376Z" fill="#297ea6" stroke="#297ea6"></path><path d="M526 507L660 489L631 376Z" fill="#1d4e6b" stroke="#1d4e6b"></path><path d="M479 600L576 538L526 507Z" fill="#112e42" stroke="#112e42"></path><path d="M526 507L576 538L660 489Z" fill="#246688" stroke="#246688"></path><path d="M600 114L483 117L590 208Z" fill="#0c2435" stroke="#0c2435"></path><path d="M590 208L483 117L475 226Z" fill="#00101c" stroke="#00101c"></path><path d="M695 72L600 114L663 209Z" fill="#00101c" stroke="#00101c"></path><path d="M663 209L600 114L590 208Z" fill="#112e42" stroke="#112e42"></path><path d="M264 293L301 397L372 331Z" fill="#297ea6" stroke="#297ea6"></path><path d="M372 331L301 397L418 364Z" fill="#1d4e6b" stroke="#1d4e6b"></path><path d="M301 397L329 467L418 364Z" fill="#00101c" stroke="#00101c"></path><path d="M403 485L479 600L526 507Z" fill="#112e42" stroke="#112e42"></path><path d="M804 384L774 270L724 277Z" fill="#081a28" stroke="#081a28"></path><path d="M724 277L807 235L663 209Z" fill="#246688" stroke="#246688"></path><path d="M420 63L327 162L371 211Z" fill="#1d4e6b" stroke="#1d4e6b"></path><path d="M371 211L264 293L372 331Z" fill="#297ea6" stroke="#297ea6"></path><path d="M327 162L264 293L371 211Z" fill="#277297" stroke="#277297"></path><path d="M385 600L479 600L403 485Z" fill="#15384f" stroke="#15384f"></path><path d="M576 538L614 600L660 489Z" fill="#246688" stroke="#246688"></path><path d="M703 431L804 384L724 277Z" fill="#277297" stroke="#277297"></path><path d="M813 492L804 384L703 431Z" fill="#277297" stroke="#277297"></path><path d="M479 600L614 600L576 538Z" fill="#205a7a" stroke="#205a7a"></path><path d="M660 489L813 492L703 431Z" fill="#1d4e6b" stroke="#1d4e6b"></path><path d="M483 117L420 63L371 211Z" fill="#081a28" stroke="#081a28"></path><path d="M486 0L420 63L483 117Z" fill="#246688" stroke="#246688"></path><path d="M900 260L807 235L774 270Z" fill="#15384f" stroke="#15384f"></path><path d="M774 270L807 235L724 277Z" fill="#0c2435" stroke="#0c2435"></path><path d="M614 600L664 600L660 489Z" fill="#277297" stroke="#277297"></path><path d="M329 467L385 600L403 485Z" fill="#112e42" stroke="#112e42"></path><path d="M420 63L301 127L327 162Z" fill="#0c2435" stroke="#0c2435"></path><path d="M225 235L218 289L264 293Z" fill="#277297" stroke="#277297"></path><path d="M800 85L695 72L663 209Z" fill="#246688" stroke="#246688"></path><path d="M600 114L486 0L483 117Z" fill="#0c2435" stroke="#0c2435"></path><path d="M225 235L264 293L327 162Z" fill="#277297" stroke="#277297"></path><path d="M264 293L218 289L301 397Z" fill="#15384f" stroke="#15384f"></path><path d="M301 397L230 488L329 467Z" fill="#081a28" stroke="#081a28"></path><path d="M329 467L310 600L385 600Z" fill="#0c2435" stroke="#0c2435"></path><path d="M301 127L225 235L327 162Z" fill="#00101c" stroke="#00101c"></path><path d="M764 600L813 492L660 489Z" fill="#0c2435" stroke="#0c2435"></path><path d="M804 384L900 260L774 270Z" fill="#246688" stroke="#246688"></path><path d="M420 63L287 0L301 127Z" fill="#205a7a" stroke="#205a7a"></path><path d="M599 0L486 0L600 114Z" fill="#205a7a" stroke="#205a7a"></path><path d="M695 72L599 0L600 114Z" fill="#246688" stroke="#246688"></path><path d="M165 419L230 488L301 397Z" fill="#297ea6" stroke="#297ea6"></path><path d="M486 0L431 0L420 63Z" fill="#0c2435" stroke="#0c2435"></path><path d="M230 488L310 600L329 467Z" fill="#081a28" stroke="#081a28"></path><path d="M664 600L764 600L660 489Z" fill="#0c2435" stroke="#0c2435"></path><path d="M807 235L800 85L663 209Z" fill="#0c2435" stroke="#0c2435"></path><path d="M695 72L690 0L599 0Z" fill="#19435d" stroke="#19435d"></path><path d="M800 85L690 0L695 72Z" fill="#112e42" stroke="#112e42"></path><path d="M218 289L165 419L301 397Z" fill="#19435d" stroke="#19435d"></path><path d="M230 488L179 600L310 600Z" fill="#246688" stroke="#246688"></path><path d="M134 391L165 419L218 289Z" fill="#297ea6" stroke="#297ea6"></path><path d="M900 435L900 260L804 384Z" fill="#19435d" stroke="#19435d"></path><path d="M807 235L900 191L800 85Z" fill="#1d4e6b" stroke="#1d4e6b"></path><path d="M813 492L900 435L804 384Z" fill="#205a7a" stroke="#205a7a"></path><path d="M900 487L900 435L813 492Z" fill="#081a28" stroke="#081a28"></path><path d="M301 127L211 96L225 235Z" fill="#112e42" stroke="#112e42"></path><path d="M105 339L134 391L218 289Z" fill="#15384f" stroke="#15384f"></path><path d="M287 0L211 96L301 127Z" fill="#246688" stroke="#246688"></path><path d="M900 260L900 191L807 235Z" fill="#277297" stroke="#277297"></path><path d="M105 339L218 289L71 202Z" fill="#0c2435" stroke="#0c2435"></path><path d="M165 419L136 519L230 488Z" fill="#081a28" stroke="#081a28"></path><path d="M900 600L900 487L813 492Z" fill="#277297" stroke="#277297"></path><path d="M431 0L287 0L420 63Z" fill="#081a28" stroke="#081a28"></path><path d="M71 202L218 289L225 235Z" fill="#205a7a" stroke="#205a7a"></path><path d="M900 191L900 120L800 85Z" fill="#112e42" stroke="#112e42"></path><path d="M800 85L831 0L690 0Z" fill="#1d4e6b" stroke="#1d4e6b"></path><path d="M0 437L136 519L134 391Z" fill="#297ea6" stroke="#297ea6"></path><path d="M134 391L136 519L165 419Z" fill="#112e42" stroke="#112e42"></path><path d="M287 0L238 0L211 96Z" fill="#1d4e6b" stroke="#1d4e6b"></path><path d="M211 96L71 202L225 235Z" fill="#277297" stroke="#277297"></path><path d="M136 519L179 600L230 488Z" fill="#297ea6" stroke="#297ea6"></path><path d="M900 120L831 0L800 85Z" fill="#00101c" stroke="#00101c"></path><path d="M764 600L900 600L813 492Z" fill="#112e42" stroke="#112e42"></path><path d="M0 600L139 600L136 519Z" fill="#1d4e6b" stroke="#1d4e6b"></path><path d="M136 519L139 600L179 600Z" fill="#15384f" stroke="#15384f"></path><path d="M103 72L71 202L211 96Z" fill="#15384f" stroke="#15384f"></path><path d="M105 339L0 437L134 391Z" fill="#00101c" stroke="#00101c"></path><path d="M900 120L900 0L831 0Z" fill="#246688" stroke="#246688"></path><path d="M109 0L103 72L211 96Z" fill="#1d4e6b" stroke="#1d4e6b"></path><path d="M0 224L0 280L71 202Z" fill="#112e42" stroke="#112e42"></path><path d="M71 202L0 280L105 339Z" fill="#1d4e6b" stroke="#1d4e6b"></path><path d="M238 0L109 0L211 96Z" fill="#246688" stroke="#246688"></path><path d="M0 96L0 224L71 202Z" fill="#081a28" stroke="#081a28"></path><path d="M0 280L0 437L105 339Z" fill="#112e42" stroke="#112e42"></path><path d="M0 96L71 202L103 72Z" fill="#081a28" stroke="#081a28"></path><path d="M0 437L0 494L136 519Z" fill="#081a28" stroke="#081a28"></path><path d="M0 0L0 96L103 72Z" fill="#205a7a" stroke="#205a7a"></path><path d="M0 494L0 600L136 519Z" fill="#15384f" stroke="#15384f"></path><path d="M109 0L0 0L103 72Z" fill="#1d4e6b" stroke="#1d4e6b"></path></g></svg>